<?xml version="1.0" encoding="UTF-8" standalone="no"?>
<!DOCTYPE svg PUBLIC "-//W3C//DTD SVG 1.1//EN"
 "http://www.w3.org/Graphics/SVG/1.1/DTD/svg11.dtd">
<!-- Generated by graphviz version 11.0.0 (20240428.1522)
 -->
<!-- Title: G Pages: 1 -->
<svg width="274pt" height="116pt"
 viewBox="0.00 0.00 274.00 115.75" xmlns="http://www.w3.org/2000/svg" xmlns:xlink="http://www.w3.org/1999/xlink">
<g id="graph0" class="graph" transform="scale(1 1) rotate(0) translate(4 111.75)">
<title>G</title>
<polygon fill="white" stroke="none" points="-4,4 -4,-111.75 270,-111.75 270,4 -4,4"/>
<!-- Legend -->
<g id="node1" class="node">
<title>Legend</title>
<polygon fill="none" stroke="black" points="1,-89 1,-106.75 265,-106.75 265,-89 1,-89"/>
<text text-anchor="start" x="79.38" y="-92.45" font-family="Times New Roman,serif" font-size="14.00">Code2flow Legend</text>
<polygon fill="none" stroke="black" points="1,-1 1,-89 265,-89 265,-1 1,-1"/>
<polygon fill="none" stroke="black" points="3,-66 3,-87 213,-87 213,-66 3,-66"/>
<text text-anchor="start" x="61.88" y="-70.7" font-family="Times New Roman,serif" font-size="14.00">Regular function</text>
<polygon fill="#cccccc" stroke="none" points="213,-66 213,-87 263,-87 263,-66 213,-66"/>
<polygon fill="none" stroke="black" points="213,-66 213,-87 263,-87 263,-66 213,-66"/>
<polygon fill="none" stroke="black" points="3,-45 3,-66 213,-66 213,-45 3,-45"/>
<text text-anchor="start" x="13.5" y="-49.7" font-family="Times New Roman,serif" font-size="14.00">Trunk function (nothing calls this)</text>
<polygon fill="#966f33" stroke="none" points="213,-45 213,-66 263,-66 263,-45 213,-45"/>
<polygon fill="none" stroke="black" points="213,-45 213,-66 263,-66 263,-45 213,-45"/>
<polygon fill="none" stroke="black" points="3,-24 3,-45 213,-45 213,-24 3,-24"/>
<text text-anchor="start" x="5.62" y="-28.7" font-family="Times New Roman,serif" font-size="14.00">Leaf function (this calls nothing else)</text>
<polygon fill="#6db33f" stroke="none" points="213,-24 213,-45 263,-45 263,-24 213,-24"/>
<polygon fill="none" stroke="black" points="213,-24 213,-45 263,-45 263,-24 213,-24"/>
<polygon fill="none" stroke="black" points="3,-3 3,-24 213,-24 213,-3 3,-3"/>
<text text-anchor="start" x="72" y="-7.7" font-family="Times New Roman,serif" font-size="14.00">Function call</text>
<polygon fill="none" stroke="black" points="213,-3 213,-24 263,-24 263,-3 213,-3"/>
<text text-anchor="start" x="230.88" y="-7.7" font-family="Times New Roman,serif" font-size="14.00">→</text>
<polygon fill="none" stroke="black" points="2,-2 2,-88 264,-88 264,-2 2,-2"/>
<polygon fill="none" stroke="black" points="0,0 0,-107.75 266,-107.75 266,0 0,0"/>
</g>
</g>
</svg>
