<?xml version="1.0" encoding="UTF-8" standalone="no"?>
<!DOCTYPE svg PUBLIC "-//W3C//DTD SVG 1.1//EN"
 "http://www.w3.org/Graphics/SVG/1.1/DTD/svg11.dtd">
<!-- Generated by graphviz version 11.0.0 (20240428.1522)
 -->
<!-- Title: G Pages: 1 -->
<svg width="818pt" height="708pt"
 viewBox="0.00 0.00 818.00 707.88" xmlns="http://www.w3.org/2000/svg" xmlns:xlink="http://www.w3.org/1999/xlink">
<g id="graph0" class="graph" transform="scale(1 1) rotate(0) translate(4 703.88)">
<title>G</title>
<polygon fill="white" stroke="none" points="-4,4 -4,-703.88 814,-703.88 814,4 -4,4"/>
<g id="clust2" class="cluster">
<title>cluster_2bcccd3e</title>
<polygon fill="none" stroke="black" stroke-dasharray="1,5" points="84.38,-117.88 84.38,-193.88 481.25,-193.88 481.25,-117.88 84.38,-117.88"/>
<text text-anchor="middle" x="282.81" y="-176.57" font-family="Times New Roman,serif" font-size="14.00">File: env</text>
</g>
<g id="clust3" class="cluster">
<title>cluster_388ab1c4</title>
<polygon fill="none" stroke="black" stroke-dasharray="1,5" points="16.75,-201.88 16.75,-691.88 802,-691.88 802,-201.88 16.75,-201.88"/>
<text text-anchor="middle" x="409.38" y="-674.58" font-family="Times New Roman,serif" font-size="14.00">File: full_ai_unit_lc240817</text>
</g>
<g id="clust4" class="cluster">
<title>cluster_81602fe6</title>
<polygon fill="none" stroke="black" stroke-dasharray="1,5" points="320.25,-485.88 320.25,-615.88 651,-615.88 651,-485.88 320.25,-485.88"/>
<text text-anchor="middle" x="485.62" y="-598.58" font-family="Times New Roman,serif" font-size="14.00">Class: CallChatAPI</text>
</g>
<g id="clust5" class="cluster">
<title>cluster_1cf50222</title>
<polygon fill="none" stroke="black" stroke-dasharray="1,5" points="68.75,-209.88 68.75,-285.88 198.25,-285.88 198.25,-209.88 68.75,-209.88"/>
<text text-anchor="middle" x="133.5" y="-268.57" font-family="Times New Roman,serif" font-size="14.00">Class: CaseAnalyzer</text>
</g>
<g id="clust6" class="cluster">
<title>cluster_9b8b501f</title>
<polygon fill="none" stroke="black" stroke-dasharray="1,5" points="24.75,-293.88 24.75,-477.88 458.75,-477.88 458.75,-293.88 24.75,-293.88"/>
<text text-anchor="middle" x="241.75" y="-460.57" font-family="Times New Roman,serif" font-size="14.00">Class: EvidenceAnalyzer</text>
</g>
<!-- Legend -->
<g id="node1" class="node">
<title>Legend</title>
<polygon fill="none" stroke="black" points="1,-89 1,-106.75 265,-106.75 265,-89 1,-89"/>
<text text-anchor="start" x="79.38" y="-92.45" font-family="Times New Roman,serif" font-size="14.00">Code2flow Legend</text>
<polygon fill="none" stroke="black" points="1,-1 1,-89 265,-89 265,-1 1,-1"/>
<polygon fill="none" stroke="black" points="3,-66 3,-87 213,-87 213,-66 3,-66"/>
<text text-anchor="start" x="61.88" y="-70.7" font-family="Times New Roman,serif" font-size="14.00">Regular function</text>
<polygon fill="#cccccc" stroke="none" points="213,-66 213,-87 263,-87 263,-66 213,-66"/>
<polygon fill="none" stroke="black" points="213,-66 213,-87 263,-87 263,-66 213,-66"/>
<polygon fill="none" stroke="black" points="3,-45 3,-66 213,-66 213,-45 3,-45"/>
<text text-anchor="start" x="13.5" y="-49.7" font-family="Times New Roman,serif" font-size="14.00">Trunk function (nothing calls this)</text>
<polygon fill="#966f33" stroke="none" points="213,-45 213,-66 263,-66 263,-45 213,-45"/>
<polygon fill="none" stroke="black" points="213,-45 213,-66 263,-66 263,-45 213,-45"/>
<polygon fill="none" stroke="black" points="3,-24 3,-45 213,-45 213,-24 3,-24"/>
<text text-anchor="start" x="5.62" y="-28.7" font-family="Times New Roman,serif" font-size="14.00">Leaf function (this calls nothing else)</text>
<polygon fill="#6db33f" stroke="none" points="213,-24 213,-45 263,-45 263,-24 213,-24"/>
<polygon fill="none" stroke="black" points="213,-24 213,-45 263,-45 263,-24 213,-24"/>
<polygon fill="none" stroke="black" points="3,-3 3,-24 213,-24 213,-3 3,-3"/>
<text text-anchor="start" x="72" y="-7.7" font-family="Times New Roman,serif" font-size="14.00">Function call</text>
<polygon fill="none" stroke="black" points="213,-3 213,-24 263,-24 263,-3 213,-3"/>
<text text-anchor="start" x="230.88" y="-7.7" font-family="Times New Roman,serif" font-size="14.00">→</text>
<polygon fill="none" stroke="black" points="2,-2 2,-88 264,-88 264,-2 2,-2"/>
<polygon fill="none" stroke="black" points="0,0 0,-107.75 266,-107.75 266,0 0,0"/>
</g>
<!-- node_98fa615e -->
<g id="node2" class="node">
<title>node_98fa615e</title>
<path fill="#966f33" stroke="black" d="M161.62,-161.88C161.62,-161.88 104.38,-161.88 104.38,-161.88 98.38,-161.88 92.38,-155.88 92.38,-149.88 92.38,-149.88 92.38,-137.88 92.38,-137.88 92.38,-131.88 98.38,-125.88 104.38,-125.88 104.38,-125.88 161.62,-125.88 161.62,-125.88 167.62,-125.88 173.62,-131.88 173.62,-137.88 173.62,-137.88 173.62,-149.88 173.62,-149.88 173.62,-155.88 167.62,-161.88 161.62,-161.88"/>
<text text-anchor="middle" x="133" y="-138.45" font-family="Times New Roman,serif" font-size="14.00">0: (global)()</text>
</g>
<!-- node_afa72086 -->
<g id="node3" class="node">
<title>node_afa72086</title>
<path fill="#6db33f" stroke="black" d="M461.25,-161.88C461.25,-161.88 314,-161.88 314,-161.88 308,-161.88 302,-155.88 302,-149.88 302,-149.88 302,-137.88 302,-137.88 302,-131.88 308,-125.88 314,-125.88 314,-125.88 461.25,-125.88 461.25,-125.88 467.25,-125.88 473.25,-131.88 473.25,-137.88 473.25,-137.88 473.25,-149.88 473.25,-149.88 473.25,-155.88 467.25,-161.88 461.25,-161.88"/>
<text text-anchor="middle" x="387.62" y="-138.45" font-family="Times New Roman,serif" font-size="14.00">31: run_migrations_offline()</text>
</g>
<!-- node_98fa615e&#45;&gt;node_afa72086 -->
<g id="edge1" class="edge">
<title>node_98fa615e&#45;&gt;node_afa72086</title>
<path fill="none" stroke="#d55e00" stroke-width="2" d="M173.91,-143.88C173.91,-143.88 288.69,-143.88 288.69,-143.88"/>
<polygon fill="#d55e00" stroke="#d55e00" stroke-width="2" points="288.69,-147.38 298.69,-143.88 288.69,-140.38 288.69,-147.38"/>
</g>
<!-- node_66f106d5 -->
<g id="node4" class="node">
<title>node_66f106d5</title>
<path fill="#6db33f" stroke="black" d="M421.5,-529.88C421.5,-529.88 353.75,-529.88 353.75,-529.88 347.75,-529.88 341.75,-523.88 341.75,-517.88 341.75,-517.88 341.75,-505.88 341.75,-505.88 341.75,-499.88 347.75,-493.88 353.75,-493.88 353.75,-493.88 421.5,-493.88 421.5,-493.88 427.5,-493.88 433.5,-499.88 433.5,-505.88 433.5,-505.88 433.5,-517.88 433.5,-517.88 433.5,-523.88 427.5,-529.88 421.5,-529.88"/>
<text text-anchor="middle" x="387.62" y="-506.45" font-family="Times New Roman,serif" font-size="14.00">83: __init__()</text>
</g>
<!-- node_93eb7779 -->
<g id="node5" class="node">
<title>node_93eb7779</title>
<path fill="#6db33f" stroke="black" d="M631,-583.88C631,-583.88 521.25,-583.88 521.25,-583.88 515.25,-583.88 509.25,-577.88 509.25,-571.88 509.25,-571.88 509.25,-559.88 509.25,-559.88 509.25,-553.88 515.25,-547.88 521.25,-547.88 521.25,-547.88 631,-547.88 631,-547.88 637,-547.88 643,-553.88 643,-559.88 643,-559.88 643,-571.88 643,-571.88 643,-577.88 637,-583.88 631,-583.88"/>
<text text-anchor="middle" x="576.12" y="-560.45" font-family="Times New Roman,serif" font-size="14.00">99: _select_method()</text>
</g>
<!-- node_5ef6d0d1 -->
<g id="node6" class="node">
<title>node_5ef6d0d1</title>
<path fill="#966f33" stroke="black" d="M435,-583.88C435,-583.88 340.25,-583.88 340.25,-583.88 334.25,-583.88 328.25,-577.88 328.25,-571.88 328.25,-571.88 328.25,-559.88 328.25,-559.88 328.25,-553.88 334.25,-547.88 340.25,-547.88 340.25,-547.88 435,-547.88 435,-547.88 441,-547.88 447,-553.88 447,-559.88 447,-559.88 447,-571.88 447,-571.88 447,-577.88 441,-583.88 435,-583.88"/>
<text text-anchor="middle" x="387.62" y="-560.45" font-family="Times New Roman,serif" font-size="14.00">86: call_chat_api()</text>
</g>
<!-- node_5ef6d0d1&#45;&gt;node_93eb7779 -->
<g id="edge2" class="edge">
<title>node_5ef6d0d1&#45;&gt;node_93eb7779</title>
<path fill="none" stroke="#e69f00" stroke-width="2" d="M447.27,-565.88C447.27,-565.88 495.98,-565.88 495.98,-565.88"/>
<polygon fill="#e69f00" stroke="#e69f00" stroke-width="2" points="495.98,-569.38 505.98,-565.88 495.98,-562.38 495.98,-569.38"/>
</g>
<!-- node_786db47e -->
<g id="node14" class="node">
<title>node_786db47e</title>
<path fill="#cccccc" stroke="black" d="M612.62,-659.88C612.62,-659.88 539.62,-659.88 539.62,-659.88 533.62,-659.88 527.62,-653.88 527.62,-647.88 527.62,-647.88 527.62,-635.88 527.62,-635.88 527.62,-629.88 533.62,-623.88 539.62,-623.88 539.62,-623.88 612.62,-623.88 612.62,-623.88 618.62,-623.88 624.62,-629.88 624.62,-635.88 624.62,-635.88 624.62,-647.88 624.62,-647.88 624.62,-653.88 618.62,-659.88 612.62,-659.88"/>
<text text-anchor="middle" x="576.12" y="-636.45" font-family="Times New Roman,serif" font-size="14.00">47: write_log()</text>
</g>
<!-- node_5ef6d0d1&#45;&gt;node_786db47e -->
<g id="edge3" class="edge">
<title>node_5ef6d0d1&#45;&gt;node_786db47e</title>
<path fill="none" stroke="#e69f00" stroke-width="2" d="M388,-584.27C388,-606.76 388,-641.88 388,-641.88 388,-641.88 514.16,-641.88 514.16,-641.88"/>
<polygon fill="#e69f00" stroke="#e69f00" stroke-width="2" points="514.16,-645.38 524.16,-641.88 514.16,-638.38 514.16,-645.38"/>
</g>
<!-- node_40eac869 -->
<g id="node7" class="node">
<title>node_40eac869</title>
<path fill="#966f33" stroke="black" d="M170.25,-253.88C170.25,-253.88 95.75,-253.88 95.75,-253.88 89.75,-253.88 83.75,-247.88 83.75,-241.88 83.75,-241.88 83.75,-229.88 83.75,-229.88 83.75,-223.88 89.75,-217.88 95.75,-217.88 95.75,-217.88 170.25,-217.88 170.25,-217.88 176.25,-217.88 182.25,-223.88 182.25,-229.88 182.25,-229.88 182.25,-241.88 182.25,-241.88 182.25,-247.88 176.25,-253.88 170.25,-253.88"/>
<text text-anchor="middle" x="133" y="-230.45" font-family="Times New Roman,serif" font-size="14.00">157: __init__()</text>
</g>
<!-- node_884f0994 -->
<g id="node12" class="node">
<title>node_884f0994</title>
<path fill="#6db33f" stroke="black" d="M423.75,-285.88C423.75,-285.88 351.5,-285.88 351.5,-285.88 345.5,-285.88 339.5,-279.88 339.5,-273.88 339.5,-273.88 339.5,-261.88 339.5,-261.88 339.5,-255.88 345.5,-249.88 351.5,-249.88 351.5,-249.88 423.75,-249.88 423.75,-249.88 429.75,-249.88 435.75,-255.88 435.75,-261.88 435.75,-261.88 435.75,-273.88 435.75,-273.88 435.75,-279.88 429.75,-285.88 423.75,-285.88"/>
<text text-anchor="middle" x="387.62" y="-262.45" font-family="Times New Roman,serif" font-size="14.00">33: check_ip()</text>
</g>
<!-- node_40eac869&#45;&gt;node_884f0994 -->
<g id="edge5" class="edge">
<title>node_40eac869&#45;&gt;node_884f0994</title>
<path fill="none" stroke="#e69f00" stroke-width="2" d="M182.47,-233.88C256.62,-233.88 388,-233.88 388,-233.88 388,-233.88 388,-236.65 388,-236.65"/>
<polygon fill="#e69f00" stroke="#e69f00" stroke-width="2" points="384.5,-236.65 388,-246.65 391.5,-236.65 384.5,-236.65"/>
</g>
<!-- node_ec4036bd -->
<g id="node8" class="node">
<title>node_ec4036bd</title>
<path fill="#966f33" stroke="black" d="M170.25,-391.88C170.25,-391.88 95.75,-391.88 95.75,-391.88 89.75,-391.88 83.75,-385.88 83.75,-379.88 83.75,-379.88 83.75,-367.88 83.75,-367.88 83.75,-361.88 89.75,-355.88 95.75,-355.88 95.75,-355.88 170.25,-355.88 170.25,-355.88 176.25,-355.88 182.25,-361.88 182.25,-367.88 182.25,-367.88 182.25,-379.88 182.25,-379.88 182.25,-385.88 176.25,-391.88 170.25,-391.88"/>
<text text-anchor="middle" x="133" y="-368.45" font-family="Times New Roman,serif" font-size="14.00">408: __init__()</text>
</g>
<!-- node_ec4036bd&#45;&gt;node_66f106d5 -->
<g id="edge6" class="edge">
<title>node_ec4036bd&#45;&gt;node_66f106d5</title>
<path fill="none" stroke="#0072b2" stroke-width="2" d="M182.61,-367.88C196.56,-367.88 208,-367.88 208,-367.88 208,-367.88 208,-511.88 208,-511.88 208,-511.88 328.34,-511.88 328.34,-511.88"/>
<polygon fill="#0072b2" stroke="#0072b2" stroke-width="2" points="328.34,-515.38 338.34,-511.88 328.34,-508.38 328.34,-515.38"/>
</g>
<!-- node_ec4036bd&#45;&gt;node_884f0994 -->
<g id="edge7" class="edge">
<title>node_ec4036bd&#45;&gt;node_884f0994</title>
<path fill="none" stroke="#0072b2" stroke-width="2" d="M182.47,-379.88C256.62,-379.88 388,-379.88 388,-379.88 388,-379.88 388,-299.4 388,-299.4"/>
<polygon fill="#0072b2" stroke="#0072b2" stroke-width="2" points="391.5,-299.4 388,-289.4 384.5,-299.4 391.5,-299.4"/>
</g>
<!-- node_b7899e03 -->
<g id="node9" class="node">
<title>node_b7899e03</title>
<path fill="#966f33" stroke="black" d="M167.25,-445.88C167.25,-445.88 98.75,-445.88 98.75,-445.88 92.75,-445.88 86.75,-439.88 86.75,-433.88 86.75,-433.88 86.75,-421.88 86.75,-421.88 86.75,-415.88 92.75,-409.88 98.75,-409.88 98.75,-409.88 167.25,-409.88 167.25,-409.88 173.25,-409.88 179.25,-415.88 179.25,-421.88 179.25,-421.88 179.25,-433.88 179.25,-433.88 179.25,-439.88 173.25,-445.88 167.25,-445.88"/>
<text text-anchor="middle" x="133" y="-422.45" font-family="Times New Roman,serif" font-size="14.00">422: analyze()</text>
</g>
<!-- node_8e87f1d3 -->
<g id="node11" class="node">
<title>node_8e87f1d3</title>
<path fill="#6db33f" stroke="black" d="M438.75,-445.88C438.75,-445.88 336.5,-445.88 336.5,-445.88 330.5,-445.88 324.5,-439.88 324.5,-433.88 324.5,-433.88 324.5,-421.88 324.5,-421.88 324.5,-415.88 330.5,-409.88 336.5,-409.88 336.5,-409.88 438.75,-409.88 438.75,-409.88 444.75,-409.88 450.75,-415.88 450.75,-421.88 450.75,-421.88 450.75,-433.88 450.75,-433.88 450.75,-439.88 444.75,-445.88 438.75,-445.88"/>
<text text-anchor="middle" x="387.62" y="-422.45" font-family="Times New Roman,serif" font-size="14.00">470: split_analysis()</text>
</g>
<!-- node_b7899e03&#45;&gt;node_8e87f1d3 -->
<g id="edge8" class="edge">
<title>node_b7899e03&#45;&gt;node_8e87f1d3</title>
<path fill="none" stroke="#009e73" stroke-width="2" d="M179.7,-427.88C179.7,-427.88 311.41,-427.88 311.41,-427.88"/>
<polygon fill="#009e73" stroke="#009e73" stroke-width="2" points="311.41,-431.38 321.41,-427.88 311.41,-424.38 311.41,-431.38"/>
</g>
<!-- node_b4f94d29 -->
<g id="node10" class="node">
<title>node_b4f94d29</title>
<path fill="#966f33" stroke="black" d="M221.25,-337.88C221.25,-337.88 44.75,-337.88 44.75,-337.88 38.75,-337.88 32.75,-331.88 32.75,-325.88 32.75,-325.88 32.75,-313.88 32.75,-313.88 32.75,-307.88 38.75,-301.88 44.75,-301.88 44.75,-301.88 221.25,-301.88 221.25,-301.88 227.25,-301.88 233.25,-307.88 233.25,-313.88 233.25,-313.88 233.25,-325.88 233.25,-325.88 233.25,-331.88 227.25,-337.88 221.25,-337.88"/>
<text text-anchor="middle" x="133" y="-314.45" font-family="Times New Roman,serif" font-size="14.00">544: check_evidence_valid_gpt()</text>
</g>
<!-- node_b4f94d29&#45;&gt;node_884f0994 -->
<g id="edge9" class="edge">
<title>node_b4f94d29&#45;&gt;node_884f0994</title>
<path fill="none" stroke="#e69f00" stroke-width="2" d="M208,-301.54C208,-287.27 208,-269.88 208,-269.88 208,-269.88 325.99,-269.88 325.99,-269.88"/>
<polygon fill="#e69f00" stroke="#e69f00" stroke-width="2" points="325.99,-273.38 335.99,-269.88 325.99,-266.38 325.99,-273.38"/>
</g>
<!-- node_4a87a019 -->
<g id="node13" class="node">
<title>node_4a87a019</title>
<path fill="#6db33f" stroke="black" d="M782,-659.88C782,-659.88 691,-659.88 691,-659.88 685,-659.88 679,-653.88 679,-647.88 679,-647.88 679,-635.88 679,-635.88 679,-629.88 685,-623.88 691,-623.88 691,-623.88 782,-623.88 782,-623.88 788,-623.88 794,-629.88 794,-635.88 794,-635.88 794,-647.88 794,-647.88 794,-653.88 788,-659.88 782,-659.88"/>
<text text-anchor="middle" x="736.5" y="-636.45" font-family="Times New Roman,serif" font-size="14.00">65: convert_text()</text>
</g>
<!-- node_786db47e&#45;&gt;node_4a87a019 -->
<g id="edge10" class="edge">
<title>node_786db47e&#45;&gt;node_4a87a019</title>
<path fill="none" stroke="#d55e00" stroke-width="2" d="M625.11,-641.88C625.11,-641.88 665.49,-641.88 665.49,-641.88"/>
<polygon fill="#d55e00" stroke="#d55e00" stroke-width="2" points="665.49,-645.38 675.49,-641.88 665.49,-638.38 665.49,-645.38"/>
</g>
</g>
</svg>
