<?xml version="1.0" encoding="UTF-8" standalone="no"?>
<!DOCTYPE svg PUBLIC "-//W3C//DTD SVG 1.1//EN"
 "http://www.w3.org/Graphics/SVG/1.1/DTD/svg11.dtd">
<!-- Generated by graphviz version 11.0.0 (20240428.1522)
 -->
<!-- Title: G Pages: 1 -->
<svg width="274pt" height="440pt"
 viewBox="0.00 0.00 274.00 439.88" xmlns="http://www.w3.org/2000/svg" xmlns:xlink="http://www.w3.org/1999/xlink">
<g id="graph0" class="graph" transform="scale(1 1) rotate(0) translate(4 435.88)">
<title>G</title>
<polygon fill="white" stroke="none" points="-4,4 -4,-435.88 270,-435.88 270,4 -4,4"/>
<g id="clust2" class="cluster">
<title>cluster_252506a0</title>
<polygon fill="none" stroke="black" stroke-dasharray="1,5" points="50.88,-115.88 50.88,-423.88 215.12,-423.88 215.12,-115.88 50.88,-115.88"/>
<text text-anchor="middle" x="133" y="-406.57" font-family="Times New Roman,serif" font-size="14.00">File: admin</text>
</g>
<g id="clust3" class="cluster">
<title>cluster_079c273a</title>
<polygon fill="none" stroke="black" stroke-dasharray="1,5" points="79.12,-123.88 79.12,-217.88 186.88,-217.88 186.88,-123.88 79.12,-123.88"/>
<text text-anchor="middle" x="133" y="-200.57" font-family="Times New Roman,serif" font-size="14.00">Class: BlogApp</text>
</g>
<g id="clust4" class="cluster">
<title>cluster_74be02ae</title>
<polygon fill="none" stroke="black" stroke-dasharray="1,5" points="58.88,-225.88 58.88,-391.88 207.12,-391.88 207.12,-225.88 58.88,-225.88"/>
<text text-anchor="middle" x="133" y="-374.57" font-family="Times New Roman,serif" font-size="14.00">Class: ArticleAdmin</text>
</g>
<!-- Legend -->
<g id="node1" class="node">
<title>Legend</title>
<polygon fill="none" stroke="black" points="1,-89 1,-106.75 265,-106.75 265,-89 1,-89"/>
<text text-anchor="start" x="79.38" y="-92.45" font-family="Times New Roman,serif" font-size="14.00">Code2flow Legend</text>
<polygon fill="none" stroke="black" points="1,-1 1,-89 265,-89 265,-1 1,-1"/>
<polygon fill="none" stroke="black" points="3,-66 3,-87 213,-87 213,-66 3,-66"/>
<text text-anchor="start" x="61.88" y="-70.7" font-family="Times New Roman,serif" font-size="14.00">Regular function</text>
<polygon fill="#cccccc" stroke="none" points="213,-66 213,-87 263,-87 263,-66 213,-66"/>
<polygon fill="none" stroke="black" points="213,-66 213,-87 263,-87 263,-66 213,-66"/>
<polygon fill="none" stroke="black" points="3,-45 3,-66 213,-66 213,-45 3,-45"/>
<text text-anchor="start" x="13.5" y="-49.7" font-family="Times New Roman,serif" font-size="14.00">Trunk function (nothing calls this)</text>
<polygon fill="#966f33" stroke="none" points="213,-45 213,-66 263,-66 263,-45 213,-45"/>
<polygon fill="none" stroke="black" points="213,-45 213,-66 263,-66 263,-45 213,-45"/>
<polygon fill="none" stroke="black" points="3,-24 3,-45 213,-45 213,-24 3,-24"/>
<text text-anchor="start" x="5.62" y="-28.7" font-family="Times New Roman,serif" font-size="14.00">Leaf function (this calls nothing else)</text>
<polygon fill="#6db33f" stroke="none" points="213,-24 213,-45 263,-45 263,-24 213,-24"/>
<polygon fill="none" stroke="black" points="213,-24 213,-45 263,-45 263,-24 213,-24"/>
<polygon fill="none" stroke="black" points="3,-3 3,-24 213,-24 213,-3 3,-3"/>
<text text-anchor="start" x="72" y="-7.7" font-family="Times New Roman,serif" font-size="14.00">Function call</text>
<polygon fill="none" stroke="black" points="213,-3 213,-24 263,-24 263,-3 213,-3"/>
<text text-anchor="start" x="230.88" y="-7.7" font-family="Times New Roman,serif" font-size="14.00">→</text>
<polygon fill="none" stroke="black" points="2,-2 2,-88 264,-88 264,-2 2,-2"/>
<polygon fill="none" stroke="black" points="0,0 0,-107.75 266,-107.75 266,0 0,0"/>
</g>
<!-- node_d30f4737 -->
<g id="node2" class="node">
<title>node_d30f4737</title>
<path fill="#cccccc" stroke="black" d="M174.75,-269.88C174.75,-269.88 91.25,-269.88 91.25,-269.88 85.25,-269.88 79.25,-263.88 79.25,-257.88 79.25,-257.88 79.25,-245.88 79.25,-245.88 79.25,-239.88 85.25,-233.88 91.25,-233.88 91.25,-233.88 174.75,-233.88 174.75,-233.88 180.75,-233.88 186.75,-239.88 186.75,-245.88 186.75,-245.88 186.75,-257.88 186.75,-257.88 186.75,-263.88 180.75,-269.88 174.75,-269.88"/>
<text text-anchor="middle" x="133" y="-246.45" font-family="Times New Roman,serif" font-size="14.00">107: get_select()</text>
</g>
<!-- node_d30f4737&#45;&gt;node_d30f4737 -->
<g id="edge1" class="edge">
<title>node_d30f4737&#45;&gt;node_d30f4737</title>
<path fill="none" stroke="#cc79a7" stroke-width="2" d="M79.03,-251.88C75.9,-251.88 74,-251.88 74,-251.88 74,-251.88 74,-281.88 74,-281.88 74,-281.88 193,-281.88 193,-281.88 193,-281.88 193,-251.88 193,-251.88 193,-251.88 192.4,-251.88 192.4,-251.88"/>
<polygon fill="#cc79a7" stroke="#cc79a7" stroke-width="2" points="200.05,-248.38 190.05,-251.88 200.05,-255.38 200.05,-248.38"/>
</g>
<!-- node_3162a9ec -->
<g id="node3" class="node">
<title>node_3162a9ec</title>
<path fill="#cccccc" stroke="black" d="M187.12,-341.88C187.12,-341.88 78.88,-341.88 78.88,-341.88 72.88,-341.88 66.88,-335.88 66.88,-329.88 66.88,-329.88 66.88,-317.88 66.88,-317.88 66.88,-311.88 72.88,-305.88 78.88,-305.88 78.88,-305.88 187.12,-305.88 187.12,-305.88 193.12,-305.88 199.12,-311.88 199.12,-317.88 199.12,-317.88 199.12,-329.88 199.12,-329.88 199.12,-335.88 193.12,-341.88 187.12,-341.88"/>
<text text-anchor="middle" x="133" y="-318.45" font-family="Times New Roman,serif" font-size="14.00">111: on_create_pre()</text>
</g>
<!-- node_3162a9ec&#45;&gt;node_3162a9ec -->
<g id="edge2" class="edge">
<title>node_3162a9ec&#45;&gt;node_3162a9ec</title>
<path fill="none" stroke="#f0e442" stroke-width="2" d="M66.42,-323.88C48.51,-323.88 34,-323.88 34,-323.88 34,-323.88 34,-293.88 34,-293.88 34,-293.88 233,-293.88 233,-293.88 233,-293.88 233,-323.88 233,-323.88 233,-323.88 212.45,-323.88 212.45,-323.88"/>
<polygon fill="#f0e442" stroke="#f0e442" stroke-width="2" points="212.45,-320.38 202.45,-323.88 212.45,-327.38 212.45,-320.38"/>
</g>
<!-- node_962d36b5 -->
<g id="node4" class="node">
<title>node_962d36b5</title>
<path fill="#cccccc" stroke="black" d="M166.88,-167.88C166.88,-167.88 99.12,-167.88 99.12,-167.88 93.12,-167.88 87.12,-161.88 87.12,-155.88 87.12,-155.88 87.12,-143.88 87.12,-143.88 87.12,-137.88 93.12,-131.88 99.12,-131.88 99.12,-131.88 166.88,-131.88 166.88,-131.88 172.88,-131.88 178.88,-137.88 178.88,-143.88 178.88,-143.88 178.88,-155.88 178.88,-155.88 178.88,-161.88 172.88,-167.88 166.88,-167.88"/>
<text text-anchor="middle" x="133" y="-144.45" font-family="Times New Roman,serif" font-size="14.00">29: __init__()</text>
</g>
<!-- node_962d36b5&#45;&gt;node_962d36b5 -->
<g id="edge3" class="edge">
<title>node_962d36b5&#45;&gt;node_962d36b5</title>
<path fill="none" stroke="#0072b2" stroke-width="2" d="M86.63,-149.88C84.97,-149.88 84,-149.88 84,-149.88 84,-149.88 84,-119.81 84,-119.81 84,-119.81 183,-119.81 183,-119.81 183,-119.81 183,-149.88 183,-149.88 183,-149.88 182.61,-149.88 182.61,-149.88"/>
<polygon fill="#0072b2" stroke="#0072b2" stroke-width="2" points="192.1,-146.38 182.1,-149.88 192.1,-153.38 192.1,-146.38"/>
</g>
</g>
</svg>
